<svg width="170" height="43" viewBox="0 0 170 43" fill="none" xmlns="http://www.w3.org/2000/svg">
<path d="M9.26348 3.15566H3.1557V20.0539C3.1557 20.5629 3.05387 20.9701 2.74849 21.1736C2.4431 21.3772 2.13773 21.5808 1.62875 21.5808C1.22156 21.5808 0.814372 21.479 0.508982 21.1736C0.203593 20.8683 0 20.5629 0 20.0539V1.62872C0 0.610754 0.508982 0.101772 1.52695 0.101772H15.3713C17 0.101772 18.5269 0.712569 19.6467 1.93413C20.8683 3.15568 21.4791 4.58082 21.4791 6.31136V20.1557C21.4791 20.6647 21.3772 21.0719 21.0718 21.2754C20.7665 21.479 20.4611 21.6826 19.9521 21.6826C19.5449 21.6826 19.1377 21.5808 18.8323 21.2754C18.527 20.9701 18.3234 20.6647 18.3234 20.1557V6.31136C18.3234 5.49699 18.018 4.68261 17.4072 4.17363C16.7964 3.56285 16.0838 3.25747 15.1677 3.25747H12.1138V20.1557C12.1138 20.6647 12.012 21.0719 11.7066 21.2754C11.4012 21.479 11.0958 21.6826 10.5868 21.6826C10.1796 21.6826 9.77245 21.5808 9.46706 21.2754C9.16167 20.9701 8.95807 20.6647 8.95807 20.1557V3.15566H9.26348ZM27.2814 9.36525H36.5449V6.31136C36.5449 5.49699 36.2395 4.68261 35.6288 4.17363C35.018 3.56285 34.3054 3.25747 33.3892 3.25747H30.3353C29.521 3.25747 28.7066 3.56285 28.0958 4.17363C27.7904 4.47902 27.5868 4.78441 27.485 5.19159C27.3832 5.59878 27.2814 6.00598 27.2814 6.41316V9.36525ZM27.2814 12.4191V15.473C27.2814 16.2874 27.5868 17.1018 28.1976 17.7126C28.503 18.018 28.8084 18.2216 29.2156 18.3234C29.6227 18.4252 30.0299 18.5269 30.4371 18.5269H38.1737C38.5808 18.5269 38.988 18.7305 39.2934 19.0359C39.5988 19.3413 39.7006 19.7485 39.7006 20.0539C39.7006 20.3593 39.5988 20.7665 39.2934 21.0718C38.988 21.3772 38.6826 21.5808 38.1737 21.5808H30.4371C28.8084 21.5808 27.2814 20.9701 26.1617 19.7485C24.9401 18.5269 24.3293 17.1018 24.3293 15.3712V6.10779C24.3293 4.47904 24.9401 3.05388 26.0599 1.83232C27.2815 0.610766 28.7066 0 30.4371 0H33.491C35.1198 0 36.6467 0.610766 37.7665 1.83232C38.988 3.05388 39.5988 4.47902 39.5988 6.20956V10.7904C39.5988 11.8084 39.0898 12.3173 38.0719 12.3173H27.2814V12.4191ZM51.2036 10.8922L56.8024 19.2395L57.006 19.7485V20.1557C57.006 20.5629 56.8024 20.8683 56.497 21.2754L56.2934 21.479L55.988 21.5808L55.3773 21.6826C54.9701 21.6826 54.5629 21.479 54.1557 20.97L49.2695 13.6407L44.3833 20.97C44.0779 21.479 43.6707 21.6826 43.0599 21.6826C42.7545 21.6826 42.3473 21.479 41.9401 21.1736C41.6347 20.8683 41.4311 20.4611 41.4311 20.0539C41.4311 19.7485 41.5329 19.5449 41.7365 19.2395L47.3353 10.8922L41.7365 2.54491L41.5329 2.03593V1.62872C41.5329 1.22153 41.7365 0.916143 42.0419 0.610754C42.3473 0.305364 42.7545 0.101772 43.1617 0.101772C43.5689 0.101772 43.9761 0.305377 44.3833 0.814359L49.2695 8.14371L54.1557 0.814359C54.4611 0.305377 54.8683 0.101772 55.4791 0.101772C55.7844 0.101772 56.1916 0.203593 56.5988 0.508982C56.9042 0.814372 57.1078 1.22153 57.1078 1.62872C57.1078 1.93411 57.006 2.13772 56.8024 2.44311L51.2036 10.8922ZM71.9701 9.36525V1.73052C71.9701 1.32334 72.1737 0.916143 72.479 0.610754C72.7844 0.305364 73.0898 0.203574 73.5988 0.203574C74.006 0.203574 74.3114 0.305364 74.6168 0.610754C74.9222 0.916143 75.1258 1.22154 75.1258 1.73052V20.1557C75.1258 20.6647 75.024 21.0719 74.7186 21.2754C74.4132 21.479 74.1078 21.6826 73.5988 21.6826C73.1916 21.6826 72.7844 21.5808 72.479 21.2754C72.1737 20.9701 71.9701 20.6647 71.9701 20.1557V12.4191H62.7066V20.1557C62.7066 20.6647 62.6048 21.0719 62.2994 21.2754C61.994 21.479 61.6886 21.6826 61.1797 21.6826C60.7725 21.6826 60.3653 21.5808 60.0599 21.2754C59.7545 20.9701 59.5509 20.6647 59.5509 20.1557V1.73052C59.5509 1.32334 59.7545 0.916143 60.0599 0.610754C60.3653 0.305364 60.6707 0.203574 61.1797 0.203574C61.5868 0.203574 61.8922 0.305364 62.1976 0.610754C62.503 0.916143 62.7066 1.22154 62.7066 1.73052V9.36525H71.9701ZM93.0419 14.8623C93.0419 16.6946 92.4312 18.2215 91.1078 19.6467C89.7845 21.0718 88.1557 21.6826 86.3234 21.6826H84.3892C82.5569 21.6826 81.0299 21.0719 79.6048 19.7485C78.2814 18.4251 77.5689 16.8982 77.5689 14.9641V6.92215C77.5689 5.08981 78.1797 3.56286 79.503 2.2395C80.8264 0.916149 82.4551 0.203574 84.2874 0.203574H86.1198C87.9521 0.203574 89.4791 0.814347 90.9042 2.1377C92.2276 3.46105 92.9401 5.08981 92.9401 6.92215V14.8623H93.0419ZM89.988 14.8623V6.82034C89.988 5.80238 89.6827 4.988 88.9701 4.17363C88.2575 3.46105 87.3413 3.05389 86.3234 3.05389H84.3892C83.3713 3.05389 82.5569 3.46105 81.7425 4.17363C81.03 4.8862 80.6228 5.80238 80.6228 6.82034V14.8623C80.6228 15.8802 81.03 16.6946 81.7425 17.509C82.4551 18.2215 83.3713 18.6287 84.3892 18.6287H86.2216C87.2395 18.6287 88.0539 18.3233 88.7665 17.6108C89.5808 16.7964 89.988 15.8802 89.988 14.8623Z" fill="#2E2E2F"/>
<path d="M116.15 20.0539C116.15 20.5629 116.048 20.9701 115.743 21.1736C115.437 21.3772 115.132 21.5808 114.623 21.5808C114.216 21.5808 113.809 21.479 113.503 21.1736C113.198 20.8683 112.994 20.5629 112.994 20.0539V3.15566H109.431L103.731 20.5629C103.629 20.8682 103.425 21.1737 103.12 21.3773C103.018 21.3773 102.815 21.479 102.306 21.5808C101.898 21.5808 101.491 21.479 101.186 21.1736C100.88 20.8683 100.677 20.5629 100.677 20.1557L100.779 19.6467L106.886 1.22154C107.09 0.508964 107.599 0.203574 108.312 0.203574H114.521C115.539 0.203574 116.048 0.712556 116.048 1.73052V20.0539H116.15ZM134.168 20.0539C134.168 21.0718 133.659 21.5808 132.641 21.5808H124.904C123.276 21.5808 121.851 20.9701 120.629 19.8503C119.407 18.6287 118.797 17.2036 118.797 15.473V1.62872C118.797 1.22153 119 0.814372 119.306 0.508982C119.611 0.203593 119.916 0.101772 120.425 0.101772C120.833 0.101772 121.138 0.203593 121.443 0.508982C121.749 0.814372 121.952 1.11974 121.952 1.62872V15.473C121.952 16.2874 122.258 17.1018 122.868 17.7126C123.174 18.018 123.479 18.2216 123.886 18.3234C124.294 18.4252 124.701 18.5269 125.108 18.5269H131.216V1.62872C131.216 1.22153 131.419 0.814372 131.725 0.508982C132.03 0.203593 132.336 0.101772 132.845 0.101772C133.252 0.101772 133.557 0.203593 133.862 0.508982C134.168 0.814372 134.371 1.11974 134.371 1.62872V20.0539H134.168ZM149.132 9.36525V1.73052C149.132 1.32334 149.336 0.916143 149.641 0.610754C149.946 0.305364 150.252 0.203574 150.761 0.203574C151.168 0.203574 151.473 0.305364 151.779 0.610754C152.084 0.916143 152.288 1.22154 152.288 1.73052V20.1557C152.288 20.6647 152.186 21.0719 151.88 21.2754C151.575 21.479 151.27 21.6826 150.761 21.6826C150.354 21.6826 149.946 21.5808 149.641 21.2754C149.336 20.9701 149.132 20.6647 149.132 20.1557V12.4191H139.869V20.1557C139.869 20.6647 139.767 21.0719 139.461 21.2754C139.156 21.479 138.851 21.6826 138.342 21.6826C137.934 21.6826 137.527 21.5808 137.222 21.2754C136.916 20.9701 136.713 20.6647 136.713 20.1557V1.73052C136.713 1.32334 136.916 0.916143 137.222 0.610754C137.527 0.305364 137.833 0.203574 138.342 0.203574C138.749 0.203574 139.054 0.305364 139.36 0.610754C139.665 0.916143 139.869 1.22154 139.869 1.73052V9.36525H149.132ZM161.042 11.6048L157.581 15.1677V20.0539C157.581 20.5629 157.479 20.9701 157.174 21.1736C156.869 21.3772 156.563 21.5808 156.054 21.5808C155.647 21.5808 155.24 21.479 154.934 21.1736C154.629 20.8683 154.425 20.5629 154.425 20.0539V1.62872C154.425 1.22153 154.629 0.814372 154.934 0.508982C155.24 0.203593 155.545 0.101772 156.054 0.101772C156.461 0.101772 156.767 0.203593 157.072 0.508982C157.378 0.814372 157.581 1.11974 157.581 1.62872V10.6886L167.354 0.508982C167.659 0.203593 167.964 0 168.372 0C168.677 0 169.084 0.203593 169.491 0.508982C169.797 0.814372 170 1.22153 170 1.62872C170 2.0359 169.797 2.4431 169.491 2.74849L163.282 9.26345L169.593 19.0359C169.797 19.4431 169.898 19.8503 169.898 20.0539C169.898 20.4611 169.695 20.8683 169.389 21.1736C169.084 21.479 168.779 21.6826 168.27 21.6826C167.863 21.6826 167.455 21.479 167.15 21.0718L161.042 11.6048Z" fill="#2E2E2F"/>
<path fill-rule="evenodd" clip-rule="evenodd" d="M95.3831 11.0956C95.5867 12.6226 96.9101 13.6405 98.437 13.4369C99.9639 13.2333 100.982 11.91 100.778 10.383C100.575 8.85608 99.2514 7.83812 97.7244 8.04172C96.2993 8.24531 95.2813 9.67046 95.3831 11.0956Z" fill="#F67F29"/>
<path d="M43.8281 39.5215C43.8281 39.6719 43.7826 39.7926 43.6914 39.8838C43.6048 39.9613 43.4909 40 43.3496 40C43.222 40 43.1104 39.9613 43.0146 39.8838C42.9189 39.8018 42.8711 39.681 42.8711 39.5215V32.0566L41.7705 33.1572C41.6748 33.2529 41.5654 33.3008 41.4424 33.3008C41.3285 33.3008 41.2168 33.2529 41.1074 33.1572C41.0072 33.057 40.957 32.943 40.957 32.8154C40.957 32.7061 41.0049 32.5967 41.1006 32.4873L43.0146 30.5732C43.0785 30.5094 43.1445 30.4593 43.2129 30.4229C43.2812 30.3818 43.3564 30.3613 43.4385 30.3613C43.516 30.3613 43.6071 30.4092 43.7119 30.5049C43.7894 30.6051 43.8281 30.7396 43.8281 30.9082V39.5215ZM50.0488 40H47.6562C47.1367 40 46.6878 39.8154 46.3096 39.4463C45.9313 39.0726 45.7422 38.6191 45.7422 38.0859V32.3438C45.7422 31.8105 45.9268 31.3594 46.2959 30.9902C46.6696 30.6165 47.123 30.4297 47.6562 30.4297H50.0488C50.181 30.4297 50.2926 30.4798 50.3838 30.5801C50.4795 30.6758 50.5273 30.7852 50.5273 30.9082C50.5273 31.0176 50.4863 31.1247 50.4043 31.2295C50.3268 31.3343 50.2083 31.3867 50.0488 31.3867H47.6562C47.3874 31.3867 47.1595 31.4779 46.9727 31.6602C46.8815 31.7513 46.8132 31.8561 46.7676 31.9746C46.722 32.0885 46.6992 32.2116 46.6992 32.3438V38.0859C46.6992 38.3548 46.7904 38.5827 46.9727 38.7695C47.0684 38.8516 47.1709 38.9199 47.2803 38.9746C47.417 39.0202 47.5423 39.043 47.6562 39.043H50.0488C50.181 39.043 50.2926 39.0931 50.3838 39.1934C50.4795 39.2891 50.5273 39.3984 50.5273 39.5215C50.5273 39.6309 50.4863 39.738 50.4043 39.8428C50.3268 39.9476 50.2083 40 50.0488 40ZM52.4414 37.3203C52.4414 37.1882 52.487 37.0765 52.5781 36.9854C52.6738 36.8896 52.7878 36.8418 52.9199 36.8418C53.0247 36.8418 53.1296 36.8896 53.2344 36.9854C53.3438 37.0765 53.3984 37.1882 53.3984 37.3203C53.3984 37.4342 53.3506 37.5436 53.2549 37.6484C53.1637 37.7487 53.0521 37.7988 52.9199 37.7988C52.7832 37.7988 52.667 37.751 52.5713 37.6553C52.4847 37.555 52.4414 37.4434 52.4414 37.3203ZM52.4414 33.4443C52.4414 33.3122 52.487 33.2005 52.5781 33.1094C52.6738 33.0137 52.7878 32.9658 52.9199 32.9658C53.0247 32.9658 53.1296 33.0137 53.2344 33.1094C53.3438 33.2005 53.3984 33.3122 53.3984 33.4443C53.3984 33.5583 53.3506 33.6676 53.2549 33.7725C53.1637 33.8727 53.0521 33.9229 52.9199 33.9229C52.7832 33.9229 52.667 33.875 52.5713 33.7793C52.4847 33.679 52.4414 33.5674 52.4414 33.4443ZM59.6191 32.8223V37.1289H60.0977C60.6263 37.1289 61.0775 36.9421 61.4512 36.5684C61.8249 36.1947 62.0117 35.7435 62.0117 35.2148V34.7363C62.0117 34.2259 61.8271 33.7793 61.458 33.3965C61.0889 33.0137 60.6354 32.8223 60.0977 32.8223H59.6191ZM58.6621 37.1289V32.8223H58.1836C57.6641 32.8223 57.2152 33.0091 56.8369 33.3828C56.4587 33.752 56.2695 34.2031 56.2695 34.7363V35.2148C56.2695 35.7389 56.4564 36.1901 56.8301 36.5684C57.2038 36.9421 57.6549 37.1289 58.1836 37.1289H58.6621ZM58.6621 38.0859H58.1836C57.3861 38.0859 56.707 37.8079 56.1465 37.252C55.5905 36.696 55.3125 36.0169 55.3125 35.2148V34.7363C55.3125 33.957 55.5928 33.2848 56.1533 32.7197C56.7139 32.1501 57.3906 31.8652 58.1836 31.8652H58.6621V30.9082C58.6621 30.7806 58.71 30.6621 58.8057 30.5527C58.9014 30.4707 59.013 30.4297 59.1406 30.4297C59.2637 30.4297 59.373 30.4707 59.4688 30.5527C59.569 30.6302 59.6191 30.7487 59.6191 30.9082V31.8652H60.0977C60.8906 31.8652 61.5674 32.1455 62.1279 32.7061C62.3877 32.9795 62.5928 33.2871 62.7432 33.6289C62.8936 33.9661 62.9688 34.3353 62.9688 34.7363V35.2148C62.9688 35.9896 62.6885 36.6618 62.1279 37.2314C61.5719 37.8011 60.8952 38.0859 60.0977 38.0859H59.6191V39.5215C59.6191 39.6719 59.5736 39.7926 59.4824 39.8838C59.3958 39.9613 59.2819 40 59.1406 40C59.013 40 58.9014 39.9613 58.8057 39.8838C58.71 39.8018 58.6621 39.681 58.6621 39.5215V38.0859ZM65.8398 39.043H67.7539C68.0182 39.043 68.2438 38.9541 68.4307 38.7764C68.6175 38.5986 68.7109 38.3685 68.7109 38.0859V35.2148C68.7109 34.946 68.6198 34.7204 68.4375 34.5381C68.2598 34.3512 68.0319 34.2578 67.7539 34.2578H65.8398V39.043ZM65.8398 40V42.3926C65.8398 42.5247 65.7897 42.6364 65.6895 42.7275C65.5938 42.8232 65.4844 42.8711 65.3613 42.8711C65.252 42.8711 65.1449 42.8301 65.04 42.748C64.9352 42.6706 64.8828 42.5521 64.8828 42.3926V33.7793C64.8828 33.4603 65.0423 33.3008 65.3613 33.3008H67.7539C68.2734 33.3008 68.7223 33.4876 69.1006 33.8613C69.4788 34.2305 69.668 34.6816 69.668 35.2148V38.0859C69.668 38.61 69.4811 39.0612 69.1074 39.4395C68.7337 39.8132 68.2826 40 67.7539 40H65.8398ZM75.4102 38.0859V34.2578H73.4961C73.2272 34.2578 72.9993 34.349 72.8125 34.5312C72.7214 34.6224 72.653 34.7272 72.6074 34.8457C72.5618 34.9596 72.5391 35.0827 72.5391 35.2148V38.0859C72.5391 38.3548 72.6302 38.5827 72.8125 38.7695C72.9082 38.8516 73.0107 38.9199 73.1201 38.9746C73.2568 39.0202 73.3822 39.043 73.4961 39.043H74.4531C74.7174 39.043 74.943 38.9541 75.1299 38.7764C75.3167 38.5986 75.4102 38.3685 75.4102 38.0859ZM75.8818 39.3711C75.7269 39.5488 75.515 39.6992 75.2461 39.8223C74.9818 39.9408 74.7174 40 74.4531 40H73.4961C72.9811 40 72.5322 39.8154 72.1494 39.4463C71.7712 39.0771 71.582 38.6237 71.582 38.0859V35.2148C71.582 34.6862 71.7689 34.235 72.1426 33.8613C72.5163 33.4876 72.9674 33.3008 73.4961 33.3008H75.8887C76.2077 33.3008 76.3672 33.4603 76.3672 33.7793V38.0791C76.3672 38.2705 76.4287 38.4665 76.5518 38.667C76.6611 38.8447 76.8206 38.9837 77.0303 39.084C77.2308 39.166 77.3311 39.3096 77.3311 39.5146C77.3311 39.6559 77.2855 39.7721 77.1943 39.8633C77.1123 39.959 76.9984 40.0068 76.8525 40.0068C76.7842 40.0068 76.7181 39.9909 76.6543 39.959C76.3398 39.8359 76.0824 39.64 75.8818 39.3711ZM82.1094 36.1719V33.7793C82.1094 33.6517 82.1572 33.5332 82.2529 33.4238C82.3486 33.3418 82.4603 33.3008 82.5879 33.3008C82.7109 33.3008 82.8203 33.3418 82.916 33.4238C83.0163 33.5013 83.0664 33.6198 83.0664 33.7793V39.5215C83.0664 39.6719 83.0208 39.7926 82.9297 39.8838C82.8431 39.9613 82.7292 40 82.5879 40C82.4603 40 82.3486 39.9613 82.2529 39.8838C82.1572 39.8018 82.1094 39.681 82.1094 39.5215V37.1289H79.2383V39.5215C79.2383 39.6719 79.1927 39.7926 79.1016 39.8838C79.015 39.9613 78.901 40 78.7598 40C78.6322 40 78.5205 39.9613 78.4248 39.8838C78.3291 39.8018 78.2812 39.681 78.2812 39.5215V33.7793C78.2812 33.6517 78.3291 33.5332 78.4248 33.4238C78.5205 33.3418 78.6322 33.3008 78.7598 33.3008C78.8828 33.3008 78.9922 33.3418 79.0879 33.4238C79.1882 33.5013 79.2383 33.6198 79.2383 33.7793V36.1719H82.1094ZM88.8086 36.1719V33.7793C88.8086 33.6517 88.8564 33.5332 88.9521 33.4238C89.0479 33.3418 89.1595 33.3008 89.2871 33.3008C89.4102 33.3008 89.5195 33.3418 89.6152 33.4238C89.7155 33.5013 89.7656 33.6198 89.7656 33.7793V39.5215C89.7656 39.6719 89.7201 39.7926 89.6289 39.8838C89.5423 39.9613 89.4284 40 89.2871 40C89.1595 40 89.0479 39.9613 88.9521 39.8838C88.8564 39.8018 88.8086 39.681 88.8086 39.5215V37.1289H86.8945C86.3796 37.1289 85.9307 36.9443 85.5479 36.5752C85.1696 36.2061 84.9805 35.7526 84.9805 35.2148V33.7793C84.9805 33.6517 85.0283 33.5332 85.124 33.4238C85.2197 33.3418 85.3314 33.3008 85.459 33.3008C85.582 33.3008 85.6914 33.3418 85.7871 33.4238C85.8874 33.5013 85.9375 33.6198 85.9375 33.7793V35.2148C85.9375 35.4837 86.0286 35.7116 86.2109 35.8984C86.3066 35.9805 86.4092 36.0488 86.5186 36.1035C86.6553 36.1491 86.7806 36.1719 86.8945 36.1719H88.8086ZM95.5078 38.0859V34.2578H93.5938C93.3249 34.2578 93.097 34.349 92.9102 34.5312C92.819 34.6224 92.7507 34.7272 92.7051 34.8457C92.6595 34.9596 92.6367 35.0827 92.6367 35.2148V38.0859C92.6367 38.3548 92.7279 38.5827 92.9102 38.7695C93.0059 38.8516 93.1084 38.9199 93.2178 38.9746C93.3545 39.0202 93.4798 39.043 93.5938 39.043H94.5508C94.8151 39.043 95.0407 38.9541 95.2275 38.7764C95.4144 38.5986 95.5078 38.3685 95.5078 38.0859ZM95.9795 39.3711C95.8245 39.5488 95.6126 39.6992 95.3438 39.8223C95.0794 39.9408 94.8151 40 94.5508 40H93.5938C93.0788 40 92.6299 39.8154 92.2471 39.4463C91.8688 39.0771 91.6797 38.6237 91.6797 38.0859V35.2148C91.6797 34.6862 91.8665 34.235 92.2402 33.8613C92.6139 33.4876 93.0651 33.3008 93.5938 33.3008H95.9863C96.3053 33.3008 96.4648 33.4603 96.4648 33.7793V38.0791C96.4648 38.2705 96.5264 38.4665 96.6494 38.667C96.7588 38.8447 96.9183 38.9837 97.1279 39.084C97.3285 39.166 97.4287 39.3096 97.4287 39.5146C97.4287 39.6559 97.3831 39.7721 97.292 39.8633C97.21 39.959 97.096 40.0068 96.9502 40.0068C96.8818 40.0068 96.8158 39.9909 96.752 39.959C96.4375 39.8359 96.18 39.64 95.9795 39.3711ZM101.729 31.3867H99.8145C99.6686 31.3867 99.5501 31.3434 99.459 31.2568C99.377 31.152 99.3359 31.0358 99.3359 30.9082C99.3359 30.7988 99.3747 30.6917 99.4521 30.5869C99.5342 30.4821 99.6549 30.4297 99.8145 30.4297H101.729C101.861 30.4297 101.972 30.4798 102.063 30.5801C102.159 30.6758 102.207 30.7852 102.207 30.9082C102.207 31.0176 102.166 31.1247 102.084 31.2295C102.007 31.3343 101.888 31.3867 101.729 31.3867ZM103.164 39.5215C103.164 39.8405 103.005 40 102.686 40H100.293C99.778 40 99.3291 39.8154 98.9463 39.4463C98.568 39.0771 98.3789 38.6237 98.3789 38.0859V33.7793C98.3789 33.6517 98.4268 33.5332 98.5225 33.4238C98.6182 33.3418 98.7298 33.3008 98.8574 33.3008C98.9805 33.3008 99.0898 33.3418 99.1855 33.4238C99.2858 33.5013 99.3359 33.6198 99.3359 33.7793V38.0859C99.3359 38.3548 99.4271 38.5827 99.6094 38.7695C99.7051 38.8516 99.8076 38.9199 99.917 38.9746C100.054 39.0202 100.179 39.043 100.293 39.043H102.207V33.7793C102.207 33.6517 102.255 33.5332 102.351 33.4238C102.446 33.3418 102.558 33.3008 102.686 33.3008C102.809 33.3008 102.918 33.3418 103.014 33.4238C103.114 33.5013 103.164 33.6198 103.164 33.7793V39.5215ZM107.594 37.1289H106.992C106.846 37.1289 106.728 37.0833 106.637 36.9922C106.555 36.8965 106.514 36.7826 106.514 36.6504C106.514 36.5365 106.555 36.4294 106.637 36.3291C106.723 36.2243 106.842 36.1719 106.992 36.1719H107.471C107.762 36.1719 107.995 36.0762 108.168 35.8848C108.341 35.6888 108.428 35.4655 108.428 35.2148C108.428 34.946 108.35 34.7249 108.195 34.5518C108.118 34.4652 108.018 34.3945 107.895 34.3398C107.771 34.2852 107.63 34.2578 107.471 34.2578H106.992C106.55 34.2578 106.167 34.3854 105.844 34.6406C105.762 34.6953 105.664 34.7295 105.55 34.7432C105.45 34.7432 105.338 34.6953 105.215 34.5996C105.124 34.4993 105.078 34.3831 105.078 34.251C105.078 34.1006 105.142 33.9753 105.27 33.875C105.762 33.4922 106.336 33.3008 106.992 33.3008H107.471C108.072 33.3008 108.551 33.499 108.906 33.8955C109.225 34.2555 109.385 34.6953 109.385 35.2148C109.385 35.3652 109.373 35.502 109.351 35.625C109.328 35.748 109.289 35.8734 109.234 36.001C109.143 36.2243 108.993 36.4408 108.783 36.6504C108.965 36.819 109.116 37.0355 109.234 37.2998L109.344 37.6826C109.371 37.8057 109.385 37.9424 109.385 38.0928C109.385 38.6169 109.225 39.0544 108.906 39.4053C108.564 39.8018 108.086 40 107.471 40H106.992C106.35 40 105.775 39.8086 105.27 39.4258C105.137 39.3301 105.071 39.2025 105.071 39.043C105.071 38.9382 105.119 38.8288 105.215 38.7148C105.311 38.6009 105.422 38.5439 105.55 38.5439C105.636 38.5439 105.734 38.5827 105.844 38.6602C106.176 38.9154 106.559 39.043 106.992 39.043H107.471C107.758 39.043 107.988 38.9473 108.161 38.7559C108.339 38.5599 108.428 38.3343 108.428 38.0791C108.428 37.833 108.359 37.6257 108.223 37.457C108.086 37.2884 107.876 37.179 107.594 37.1289ZM116.084 39.5215C116.084 39.8405 115.924 40 115.605 40H113.213C112.698 40 112.249 39.8154 111.866 39.4463C111.488 39.0771 111.299 38.6237 111.299 38.0859V33.7793C111.299 33.6517 111.347 33.5332 111.442 33.4238C111.538 33.3418 111.65 33.3008 111.777 33.3008C111.9 33.3008 112.01 33.3418 112.105 33.4238C112.206 33.5013 112.256 33.6198 112.256 33.7793V38.0859C112.256 38.3548 112.347 38.5827 112.529 38.7695C112.625 38.8516 112.728 38.9199 112.837 38.9746C112.974 39.0202 113.099 39.043 113.213 39.043H115.127V33.7793C115.127 33.6517 115.175 33.5332 115.271 33.4238C115.366 33.3418 115.478 33.3008 115.605 33.3008C115.729 33.3008 115.838 33.3418 115.934 33.4238C116.034 33.5013 116.084 33.6198 116.084 33.7793V39.5215ZM121.826 36.1719V33.7793C121.826 33.6517 121.874 33.5332 121.97 33.4238C122.065 33.3418 122.177 33.3008 122.305 33.3008C122.428 33.3008 122.537 33.3418 122.633 33.4238C122.733 33.5013 122.783 33.6198 122.783 33.7793V39.5215C122.783 39.6719 122.738 39.7926 122.646 39.8838C122.56 39.9613 122.446 40 122.305 40C122.177 40 122.065 39.9613 121.97 39.8838C121.874 39.8018 121.826 39.681 121.826 39.5215V37.1289H118.955V39.5215C118.955 39.6719 118.91 39.7926 118.818 39.8838C118.732 39.9613 118.618 40 118.477 40C118.349 40 118.237 39.9613 118.142 39.8838C118.046 39.8018 117.998 39.681 117.998 39.5215V33.7793C117.998 33.6517 118.046 33.5332 118.142 33.4238C118.237 33.3418 118.349 33.3008 118.477 33.3008C118.6 33.3008 118.709 33.3418 118.805 33.4238C118.905 33.5013 118.955 33.6198 118.955 33.7793V36.1719H121.826ZM129.236 39.5625C128.99 39.6947 128.671 39.8086 128.279 39.9043L127.767 39.9795L127.206 40.0068L126.536 39.9795L125.962 39.8975C125.606 39.8428 125.315 39.6787 125.087 39.4053C124.859 39.1273 124.745 38.8128 124.745 38.4619C124.745 38.2614 124.786 38.0609 124.868 37.8604C124.95 37.6598 125.085 37.4798 125.271 37.3203L128.327 35.2217C128.423 35.1396 128.471 35.0417 128.471 34.9277C128.471 34.7272 128.307 34.57 127.979 34.4561C127.65 34.3421 127.29 34.2852 126.898 34.2852C126.584 34.2852 126.304 34.3125 126.058 34.3672C125.816 34.4173 125.618 34.5085 125.463 34.6406C125.381 34.6953 125.283 34.7295 125.169 34.7432C125.069 34.7432 124.957 34.6953 124.834 34.5996C124.743 34.4993 124.697 34.3831 124.697 34.251C124.697 34.1006 124.761 33.9753 124.889 33.875C125.085 33.7246 125.383 33.5993 125.784 33.499C125.976 33.4535 126.174 33.417 126.379 33.3896C126.589 33.3623 126.794 33.3486 126.994 33.3486C127.122 33.3486 127.243 33.3509 127.356 33.3555C127.475 33.36 127.607 33.3714 127.753 33.3896C127.899 33.4033 128.072 33.4421 128.272 33.5059C128.619 33.6016 128.901 33.7793 129.12 34.0391C129.343 34.2988 129.455 34.5859 129.455 34.9004C129.455 35.2969 129.273 35.6546 128.908 35.9736L125.853 38.0791C125.739 38.1839 125.682 38.307 125.682 38.4482C125.682 38.5622 125.72 38.6738 125.798 38.7832C125.875 38.8789 125.985 38.9404 126.126 38.9678L126.639 39.0225L127.213 39.0498C127.568 39.0498 127.858 39.027 128.081 38.9814C128.181 38.9632 128.293 38.9313 128.416 38.8857C128.539 38.8402 128.658 38.7832 128.771 38.7148L128.867 38.6738C128.908 38.6602 128.961 38.6533 129.024 38.6533C129.147 38.6533 129.259 38.7035 129.359 38.8037C129.446 38.904 129.489 39.0225 129.489 39.1592C129.489 39.3141 129.405 39.4486 129.236 39.5625Z" fill="#4A4A4A"/>
</svg>
