<svg width="157" height="41" viewBox="0 0 157 41" fill="none" xmlns="http://www.w3.org/2000/svg">
<path d="M8.5551 2.91435H2.91438V18.5203C2.91438 18.9904 2.82034 19.3665 2.53831 19.5545C2.25627 19.7425 1.97426 19.9305 1.5042 19.9305C1.12815 19.9305 0.752096 19.8365 0.47006 19.5545C0.188024 19.2724 0 18.9904 0 18.5203V1.50417C0 0.564049 0.47006 0.093989 1.41018 0.093989H14.1958C15.7 0.093989 17.1102 0.658078 18.1443 1.78622C19.2724 2.91437 19.8365 4.23052 19.8365 5.82873V18.6144C19.8365 19.0844 19.7425 19.4605 19.4605 19.6485C19.1784 19.8365 18.8964 20.0245 18.4264 20.0245C18.0503 20.0245 17.6743 19.9305 17.3922 19.6485C17.1102 19.3665 16.9222 19.0844 16.9222 18.6144V5.82873C16.9222 5.07663 16.6401 4.32453 16.0761 3.85447C15.512 3.2904 14.8539 3.00837 14.0078 3.00837H11.1874V18.6144C11.1874 19.0844 11.0934 19.4605 10.8114 19.6485C10.5293 19.8365 10.2473 20.0245 9.77724 20.0245C9.40119 20.0245 9.02514 19.9305 8.7431 19.6485C8.46107 19.3665 8.27304 19.0844 8.27304 18.6144V2.91435H8.5551ZM25.1952 8.64909H33.7503V5.82873C33.7503 5.07663 33.4683 4.32453 32.9042 3.85447C32.3401 3.2904 31.682 3.00837 30.8359 3.00837H28.0156C27.2635 3.00837 26.5114 3.2904 25.9473 3.85447C25.6653 4.13651 25.4772 4.41854 25.3832 4.79459C25.2892 5.17064 25.1952 5.5467 25.1952 5.92274V8.64909ZM25.1952 11.4694V14.2898C25.1952 15.0419 25.4772 15.794 26.0413 16.3581C26.3233 16.6401 26.6054 16.8281 26.9814 16.9222C27.3575 17.0162 27.7335 17.1102 28.1096 17.1102H35.2545C35.6305 17.1102 36.0066 17.2982 36.2886 17.5802C36.5707 17.8623 36.6647 18.2383 36.6647 18.5203C36.6647 18.8024 36.5707 19.1784 36.2886 19.4605C36.0066 19.7425 35.7246 19.9305 35.2545 19.9305H28.1096C26.6054 19.9305 25.1952 19.3665 24.1611 18.2383C23.0329 17.1102 22.4689 15.794 22.4689 14.1958V5.64072C22.4689 4.13653 23.0329 2.82035 24.0671 1.6922C25.1952 0.56406 26.5114 0 28.1096 0H30.9299C32.4341 0 33.8443 0.56406 34.8785 1.6922C36.0066 2.82035 36.5707 4.1365 36.5707 5.73471V9.96525C36.5707 10.9054 36.1006 11.3754 35.1605 11.3754H25.1952V11.4694ZM47.288 10.0593L52.4587 17.7683L52.6467 18.2383V18.6144C52.6467 18.9904 52.4587 19.2725 52.1767 19.6485L51.9886 19.8365L51.7066 19.9305L51.1425 20.0245C50.7665 20.0245 50.3904 19.8365 50.0144 19.3664L45.5018 12.5976L40.9892 19.3664C40.7072 19.8365 40.3311 20.0245 39.7671 20.0245C39.485 20.0245 39.109 19.8365 38.7329 19.5545C38.4509 19.2724 38.2629 18.8964 38.2629 18.5203C38.2629 18.2383 38.3569 18.0503 38.5449 17.7683L43.7156 10.0593L38.5449 2.3503L38.3569 1.88024V1.50417C38.3569 1.12812 38.5449 0.846085 38.8269 0.564049C39.109 0.282013 39.485 0.093989 39.8611 0.093989C40.2371 0.093989 40.6132 0.282025 40.9892 0.752084L45.5018 7.52096L50.0144 0.752084C50.2964 0.282025 50.6725 0.093989 51.2365 0.093989C51.5186 0.093989 51.8946 0.188024 52.2707 0.47006C52.5527 0.752096 52.7407 1.12812 52.7407 1.50417C52.7407 1.78621 52.6467 1.97425 52.4587 2.25628L47.288 10.0593ZM66.4665 8.64909V1.59819C66.4665 1.22214 66.6545 0.846085 66.9365 0.564049C67.2186 0.282013 67.5006 0.188007 67.9707 0.188007C68.3467 0.188007 68.6287 0.282013 68.9108 0.564049C69.1928 0.846085 69.3808 1.12813 69.3808 1.59819V18.6144C69.3808 19.0844 69.2868 19.4605 69.0048 19.6485C68.7228 19.8365 68.4407 20.0245 67.9707 20.0245C67.5946 20.0245 67.2186 19.9305 66.9365 19.6485C66.6545 19.3665 66.4665 19.0844 66.4665 18.6144V11.4694H57.9114V18.6144C57.9114 19.0844 57.8174 19.4605 57.5353 19.6485C57.2533 19.8365 56.9713 20.0245 56.5012 20.0245C56.1252 20.0245 55.7491 19.9305 55.4671 19.6485C55.185 19.3665 54.997 19.0844 54.997 18.6144V1.59819C54.997 1.22214 55.185 0.846085 55.4671 0.564049C55.7491 0.282013 56.0312 0.188007 56.5012 0.188007C56.8773 0.188007 57.1593 0.282013 57.4413 0.564049C57.7234 0.846085 57.9114 1.12813 57.9114 1.59819V8.64909H66.4665ZM85.927 13.7257C85.927 15.4179 85.3629 16.8281 84.1407 18.1443C82.9186 19.4605 81.4144 20.0245 79.7222 20.0245H77.9359C76.2437 20.0245 74.8335 19.4605 73.5174 18.2383C72.2952 17.0162 71.6371 15.606 71.6371 13.8197V6.3928C71.6371 4.70059 72.2012 3.2904 73.4234 2.06825C74.6455 0.846091 76.1497 0.188007 77.8419 0.188007H79.5341C81.2264 0.188007 82.6365 0.752073 83.9527 1.97423C85.1749 3.19638 85.8329 4.70059 85.8329 6.3928V13.7257H85.927ZM83.1066 13.7257V6.29879C83.1066 5.35867 82.8246 4.60656 82.1665 3.85447C81.5084 3.19639 80.6623 2.82036 79.7222 2.82036H77.9359C76.9958 2.82036 76.2437 3.19639 75.4916 3.85447C74.8335 4.51255 74.4575 5.35867 74.4575 6.29879V13.7257C74.4575 14.6658 74.8335 15.4179 75.4916 16.17C76.1497 16.8281 76.9958 17.2042 77.9359 17.2042H79.6281C80.5683 17.2042 81.3204 16.9221 81.9784 16.2641C82.7305 15.512 83.1066 14.6658 83.1066 13.7257Z" fill="white"/>
<path d="M107.268 18.5204C107.268 18.9905 107.174 19.3665 106.892 19.5545C106.61 19.7426 106.328 19.9306 105.858 19.9306C105.481 19.9306 105.105 19.8366 104.823 19.5545C104.541 19.2725 104.353 18.9905 104.353 18.5204V2.91439H101.063L95.7982 18.9905C95.7042 19.2725 95.5162 19.5545 95.2342 19.7426C95.1401 19.7426 94.9521 19.8366 94.4821 19.9306C94.106 19.9306 93.73 19.8366 93.4479 19.5545C93.1659 19.2725 92.9779 18.9905 92.9779 18.6144L93.0719 18.1444L98.7126 1.12817C98.9006 0.470089 99.3707 0.188053 100.029 0.188053H105.764C106.704 0.188053 107.174 0.658113 107.174 1.59823V18.5204H107.268ZM123.908 18.5204C123.908 19.4605 123.438 19.9306 122.498 19.9306H115.353C113.849 19.9306 112.532 19.3665 111.404 18.3324C110.276 17.2042 109.712 15.8881 109.712 14.2899V1.50421C109.712 1.12817 109.9 0.752142 110.182 0.470106C110.464 0.18807 110.746 0.0940348 111.216 0.0940348C111.592 0.0940348 111.874 0.18807 112.156 0.470106C112.438 0.752142 112.626 1.03415 112.626 1.50421V14.2899C112.626 15.0419 112.908 15.7941 113.472 16.3581C113.755 16.6402 114.037 16.8282 114.413 16.9222C114.789 17.0162 115.165 17.1102 115.541 17.1102H121.181V1.50421C121.181 1.12817 121.369 0.752142 121.652 0.470106C121.934 0.18807 122.216 0.0940348 122.686 0.0940348C123.062 0.0940348 123.344 0.18807 123.626 0.470106C123.908 0.752142 124.096 1.03415 124.096 1.50421V18.5204H123.908ZM137.728 8.64913V1.59823C137.728 1.22218 137.916 0.846131 138.198 0.564095C138.48 0.282059 138.762 0.188053 139.232 0.188053C139.608 0.188053 139.89 0.282059 140.172 0.564095C140.454 0.846131 140.642 1.12817 140.642 1.59823V18.6144C140.642 19.0845 140.548 19.4605 140.266 19.6485C139.984 19.8366 139.702 20.0246 139.232 20.0246C138.856 20.0246 138.48 19.9306 138.198 19.6485C137.916 19.3665 137.728 19.0845 137.728 18.6144V11.4695H129.172V18.6144C129.172 19.0845 129.078 19.4605 128.796 19.6485C128.514 19.8366 128.232 20.0246 127.762 20.0246C127.386 20.0246 127.01 19.9306 126.728 19.6485C126.446 19.3665 126.258 19.0845 126.258 18.6144V1.59823C126.258 1.22218 126.446 0.846131 126.728 0.564095C127.01 0.282059 127.292 0.188053 127.762 0.188053C128.138 0.188053 128.42 0.282059 128.702 0.564095C128.984 0.846131 129.172 1.12817 129.172 1.59823V8.64913H137.728ZM148.727 10.7174L145.531 14.0078V18.5204C145.531 18.9905 145.437 19.3665 145.155 19.5545C144.872 19.7426 144.59 19.9306 144.12 19.9306C143.744 19.9306 143.368 19.8366 143.086 19.5545C142.804 19.2725 142.616 18.9905 142.616 18.5204V1.50421C142.616 1.12817 142.804 0.752142 143.086 0.470106C143.368 0.18807 143.65 0.0940348 144.12 0.0940348C144.496 0.0940348 144.779 0.18807 145.061 0.470106C145.343 0.752142 145.531 1.03415 145.531 1.50421V9.87131L154.556 0.470106C154.838 0.18807 155.12 4.57764e-05 155.496 4.57764e-05C155.778 4.57764e-05 156.154 0.18807 156.53 0.470106C156.812 0.752142 157 1.12817 157 1.50421C157 1.88026 156.812 2.25632 156.53 2.53835L150.795 8.55511L156.624 17.5803C156.812 17.9563 156.906 18.3324 156.906 18.5204C156.906 18.8964 156.718 19.2725 156.436 19.5545C156.154 19.8366 155.872 20.0246 155.402 20.0246C155.026 20.0246 154.65 19.8366 154.368 19.4605L148.727 10.7174Z" fill="white"/>
<path fill-rule="evenodd" clip-rule="evenodd" d="M88.0892 10.2473C88.2773 11.6575 89.4994 12.5976 90.9096 12.4096C92.3198 12.2215 93.2599 10.9994 93.0719 9.58919C92.8839 8.17901 91.6617 7.23891 90.2515 7.42693C88.9354 7.61495 87.9952 8.93112 88.0892 10.2473Z" fill="#F67F29"/>
<path d="M3.82812 37.5215C3.82812 37.6719 3.78255 37.7926 3.69141 37.8838C3.60482 37.9613 3.49089 38 3.34961 38C3.22201 38 3.11035 37.9613 3.01465 37.8838C2.91895 37.8018 2.87109 37.681 2.87109 37.5215V30.0566L1.77051 31.1572C1.6748 31.2529 1.56543 31.3008 1.44238 31.3008C1.32845 31.3008 1.2168 31.2529 1.10742 31.1572C1.00716 31.057 0.957031 30.943 0.957031 30.8154C0.957031 30.7061 1.00488 30.5967 1.10059 30.4873L3.01465 28.5732C3.07845 28.5094 3.14453 28.4593 3.21289 28.4229C3.28125 28.3818 3.35645 28.3613 3.43848 28.3613C3.51595 28.3613 3.6071 28.4092 3.71191 28.5049C3.78939 28.6051 3.82812 28.7396 3.82812 28.9082V37.5215ZM10.0488 38H7.65625C7.13672 38 6.68783 37.8154 6.30957 37.4463C5.93132 37.0726 5.74219 36.6191 5.74219 36.0859V30.3438C5.74219 29.8105 5.92676 29.3594 6.2959 28.9902C6.6696 28.6165 7.12305 28.4297 7.65625 28.4297H10.0488C10.181 28.4297 10.2926 28.4798 10.3838 28.5801C10.4795 28.6758 10.5273 28.7852 10.5273 28.9082C10.5273 29.0176 10.4863 29.1247 10.4043 29.2295C10.3268 29.3343 10.2083 29.3867 10.0488 29.3867H7.65625C7.38737 29.3867 7.15951 29.4779 6.97266 29.6602C6.88151 29.7513 6.81315 29.8561 6.76758 29.9746C6.72201 30.0885 6.69922 30.2116 6.69922 30.3438V36.0859C6.69922 36.3548 6.79036 36.5827 6.97266 36.7695C7.06836 36.8516 7.1709 36.9199 7.28027 36.9746C7.41699 37.0202 7.54232 37.043 7.65625 37.043H10.0488C10.181 37.043 10.2926 37.0931 10.3838 37.1934C10.4795 37.2891 10.5273 37.3984 10.5273 37.5215C10.5273 37.6309 10.4863 37.738 10.4043 37.8428C10.3268 37.9476 10.2083 38 10.0488 38ZM12.4414 35.3203C12.4414 35.1882 12.487 35.0765 12.5781 34.9854C12.6738 34.8896 12.7878 34.8418 12.9199 34.8418C13.0247 34.8418 13.1296 34.8896 13.2344 34.9854C13.3438 35.0765 13.3984 35.1882 13.3984 35.3203C13.3984 35.4342 13.3506 35.5436 13.2549 35.6484C13.1637 35.7487 13.0521 35.7988 12.9199 35.7988C12.7832 35.7988 12.667 35.751 12.5713 35.6553C12.4847 35.555 12.4414 35.4434 12.4414 35.3203ZM12.4414 31.4443C12.4414 31.3122 12.487 31.2005 12.5781 31.1094C12.6738 31.0137 12.7878 30.9658 12.9199 30.9658C13.0247 30.9658 13.1296 31.0137 13.2344 31.1094C13.3438 31.2005 13.3984 31.3122 13.3984 31.4443C13.3984 31.5583 13.3506 31.6676 13.2549 31.7725C13.1637 31.8727 13.0521 31.9229 12.9199 31.9229C12.7832 31.9229 12.667 31.875 12.5713 31.7793C12.4847 31.679 12.4414 31.5674 12.4414 31.4443ZM19.6191 30.8223V35.1289H20.0977C20.6263 35.1289 21.0775 34.9421 21.4512 34.5684C21.8249 34.1947 22.0117 33.7435 22.0117 33.2148V32.7363C22.0117 32.2259 21.8271 31.7793 21.458 31.3965C21.0889 31.0137 20.6354 30.8223 20.0977 30.8223H19.6191ZM18.6621 35.1289V30.8223H18.1836C17.6641 30.8223 17.2152 31.0091 16.8369 31.3828C16.4587 31.752 16.2695 32.2031 16.2695 32.7363V33.2148C16.2695 33.7389 16.4564 34.1901 16.8301 34.5684C17.2038 34.9421 17.6549 35.1289 18.1836 35.1289H18.6621ZM18.6621 36.0859H18.1836C17.3861 36.0859 16.707 35.8079 16.1465 35.252C15.5905 34.696 15.3125 34.0169 15.3125 33.2148V32.7363C15.3125 31.957 15.5928 31.2848 16.1533 30.7197C16.7139 30.1501 17.3906 29.8652 18.1836 29.8652H18.6621V28.9082C18.6621 28.7806 18.71 28.6621 18.8057 28.5527C18.9014 28.4707 19.013 28.4297 19.1406 28.4297C19.2637 28.4297 19.373 28.4707 19.4688 28.5527C19.569 28.6302 19.6191 28.7487 19.6191 28.9082V29.8652H20.0977C20.8906 29.8652 21.5674 30.1455 22.1279 30.7061C22.3877 30.9795 22.5928 31.2871 22.7432 31.6289C22.8936 31.9661 22.9688 32.3353 22.9688 32.7363V33.2148C22.9688 33.9896 22.6885 34.6618 22.1279 35.2314C21.5719 35.8011 20.8952 36.0859 20.0977 36.0859H19.6191V37.5215C19.6191 37.6719 19.5736 37.7926 19.4824 37.8838C19.3958 37.9613 19.2819 38 19.1406 38C19.013 38 18.9014 37.9613 18.8057 37.8838C18.71 37.8018 18.6621 37.681 18.6621 37.5215V36.0859ZM25.8398 37.043H27.7539C28.0182 37.043 28.2438 36.9541 28.4307 36.7764C28.6175 36.5986 28.7109 36.3685 28.7109 36.0859V33.2148C28.7109 32.946 28.6198 32.7204 28.4375 32.5381C28.2598 32.3512 28.0319 32.2578 27.7539 32.2578H25.8398V37.043ZM25.8398 38V40.3926C25.8398 40.5247 25.7897 40.6364 25.6895 40.7275C25.5938 40.8232 25.4844 40.8711 25.3613 40.8711C25.252 40.8711 25.1449 40.8301 25.04 40.748C24.9352 40.6706 24.8828 40.5521 24.8828 40.3926V31.7793C24.8828 31.4603 25.0423 31.3008 25.3613 31.3008H27.7539C28.2734 31.3008 28.7223 31.4876 29.1006 31.8613C29.4788 32.2305 29.668 32.6816 29.668 33.2148V36.0859C29.668 36.61 29.4811 37.0612 29.1074 37.4395C28.7337 37.8132 28.2826 38 27.7539 38H25.8398ZM35.4102 36.0859V32.2578H33.4961C33.2272 32.2578 32.9993 32.349 32.8125 32.5312C32.7214 32.6224 32.653 32.7272 32.6074 32.8457C32.5618 32.9596 32.5391 33.0827 32.5391 33.2148V36.0859C32.5391 36.3548 32.6302 36.5827 32.8125 36.7695C32.9082 36.8516 33.0107 36.9199 33.1201 36.9746C33.2568 37.0202 33.3822 37.043 33.4961 37.043H34.4531C34.7174 37.043 34.943 36.9541 35.1299 36.7764C35.3167 36.5986 35.4102 36.3685 35.4102 36.0859ZM35.8818 37.3711C35.7269 37.5488 35.515 37.6992 35.2461 37.8223C34.9818 37.9408 34.7174 38 34.4531 38H33.4961C32.9811 38 32.5322 37.8154 32.1494 37.4463C31.7712 37.0771 31.582 36.6237 31.582 36.0859V33.2148C31.582 32.6862 31.7689 32.235 32.1426 31.8613C32.5163 31.4876 32.9674 31.3008 33.4961 31.3008H35.8887C36.2077 31.3008 36.3672 31.4603 36.3672 31.7793V36.0791C36.3672 36.2705 36.4287 36.4665 36.5518 36.667C36.6611 36.8447 36.8206 36.9837 37.0303 37.084C37.2308 37.166 37.3311 37.3096 37.3311 37.5146C37.3311 37.6559 37.2855 37.7721 37.1943 37.8633C37.1123 37.959 36.9984 38.0068 36.8525 38.0068C36.7842 38.0068 36.7181 37.9909 36.6543 37.959C36.3398 37.8359 36.0824 37.64 35.8818 37.3711ZM42.1094 34.1719V31.7793C42.1094 31.6517 42.1572 31.5332 42.2529 31.4238C42.3486 31.3418 42.4603 31.3008 42.5879 31.3008C42.7109 31.3008 42.8203 31.3418 42.916 31.4238C43.0163 31.5013 43.0664 31.6198 43.0664 31.7793V37.5215C43.0664 37.6719 43.0208 37.7926 42.9297 37.8838C42.8431 37.9613 42.7292 38 42.5879 38C42.4603 38 42.3486 37.9613 42.2529 37.8838C42.1572 37.8018 42.1094 37.681 42.1094 37.5215V35.1289H39.2383V37.5215C39.2383 37.6719 39.1927 37.7926 39.1016 37.8838C39.015 37.9613 38.901 38 38.7598 38C38.6322 38 38.5205 37.9613 38.4248 37.8838C38.3291 37.8018 38.2812 37.681 38.2812 37.5215V31.7793C38.2812 31.6517 38.3291 31.5332 38.4248 31.4238C38.5205 31.3418 38.6322 31.3008 38.7598 31.3008C38.8828 31.3008 38.9922 31.3418 39.0879 31.4238C39.1882 31.5013 39.2383 31.6198 39.2383 31.7793V34.1719H42.1094ZM48.8086 34.1719V31.7793C48.8086 31.6517 48.8564 31.5332 48.9521 31.4238C49.0479 31.3418 49.1595 31.3008 49.2871 31.3008C49.4102 31.3008 49.5195 31.3418 49.6152 31.4238C49.7155 31.5013 49.7656 31.6198 49.7656 31.7793V37.5215C49.7656 37.6719 49.7201 37.7926 49.6289 37.8838C49.5423 37.9613 49.4284 38 49.2871 38C49.1595 38 49.0479 37.9613 48.9521 37.8838C48.8564 37.8018 48.8086 37.681 48.8086 37.5215V35.1289H46.8945C46.3796 35.1289 45.9307 34.9443 45.5479 34.5752C45.1696 34.2061 44.9805 33.7526 44.9805 33.2148V31.7793C44.9805 31.6517 45.0283 31.5332 45.124 31.4238C45.2197 31.3418 45.3314 31.3008 45.459 31.3008C45.582 31.3008 45.6914 31.3418 45.7871 31.4238C45.8874 31.5013 45.9375 31.6198 45.9375 31.7793V33.2148C45.9375 33.4837 46.0286 33.7116 46.2109 33.8984C46.3066 33.9805 46.4092 34.0488 46.5186 34.1035C46.6553 34.1491 46.7806 34.1719 46.8945 34.1719H48.8086ZM55.5078 36.0859V32.2578H53.5938C53.3249 32.2578 53.097 32.349 52.9102 32.5312C52.819 32.6224 52.7507 32.7272 52.7051 32.8457C52.6595 32.9596 52.6367 33.0827 52.6367 33.2148V36.0859C52.6367 36.3548 52.7279 36.5827 52.9102 36.7695C53.0059 36.8516 53.1084 36.9199 53.2178 36.9746C53.3545 37.0202 53.4798 37.043 53.5938 37.043H54.5508C54.8151 37.043 55.0407 36.9541 55.2275 36.7764C55.4144 36.5986 55.5078 36.3685 55.5078 36.0859ZM55.9795 37.3711C55.8245 37.5488 55.6126 37.6992 55.3438 37.8223C55.0794 37.9408 54.8151 38 54.5508 38H53.5938C53.0788 38 52.6299 37.8154 52.2471 37.4463C51.8688 37.0771 51.6797 36.6237 51.6797 36.0859V33.2148C51.6797 32.6862 51.8665 32.235 52.2402 31.8613C52.6139 31.4876 53.0651 31.3008 53.5938 31.3008H55.9863C56.3053 31.3008 56.4648 31.4603 56.4648 31.7793V36.0791C56.4648 36.2705 56.5264 36.4665 56.6494 36.667C56.7588 36.8447 56.9183 36.9837 57.1279 37.084C57.3285 37.166 57.4287 37.3096 57.4287 37.5146C57.4287 37.6559 57.3831 37.7721 57.292 37.8633C57.21 37.959 57.096 38.0068 56.9502 38.0068C56.8818 38.0068 56.8158 37.9909 56.752 37.959C56.4375 37.8359 56.18 37.64 55.9795 37.3711ZM61.7285 29.3867H59.8145C59.6686 29.3867 59.5501 29.3434 59.459 29.2568C59.377 29.152 59.3359 29.0358 59.3359 28.9082C59.3359 28.7988 59.3747 28.6917 59.4521 28.5869C59.5342 28.4821 59.6549 28.4297 59.8145 28.4297H61.7285C61.8607 28.4297 61.9723 28.4798 62.0635 28.5801C62.1592 28.6758 62.207 28.7852 62.207 28.9082C62.207 29.0176 62.166 29.1247 62.084 29.2295C62.0065 29.3343 61.888 29.3867 61.7285 29.3867ZM63.1641 37.5215C63.1641 37.8405 63.0046 38 62.6855 38H60.293C59.778 38 59.3291 37.8154 58.9463 37.4463C58.568 37.0771 58.3789 36.6237 58.3789 36.0859V31.7793C58.3789 31.6517 58.4268 31.5332 58.5225 31.4238C58.6182 31.3418 58.7298 31.3008 58.8574 31.3008C58.9805 31.3008 59.0898 31.3418 59.1855 31.4238C59.2858 31.5013 59.3359 31.6198 59.3359 31.7793V36.0859C59.3359 36.3548 59.4271 36.5827 59.6094 36.7695C59.7051 36.8516 59.8076 36.9199 59.917 36.9746C60.0537 37.0202 60.179 37.043 60.293 37.043H62.207V31.7793C62.207 31.6517 62.2549 31.5332 62.3506 31.4238C62.4463 31.3418 62.5579 31.3008 62.6855 31.3008C62.8086 31.3008 62.918 31.3418 63.0137 31.4238C63.1139 31.5013 63.1641 31.6198 63.1641 31.7793V37.5215ZM67.5938 35.1289H66.9922C66.8464 35.1289 66.7279 35.0833 66.6367 34.9922C66.5547 34.8965 66.5137 34.7826 66.5137 34.6504C66.5137 34.5365 66.5547 34.4294 66.6367 34.3291C66.7233 34.2243 66.8418 34.1719 66.9922 34.1719H67.4707C67.7624 34.1719 67.9948 34.0762 68.168 33.8848C68.3411 33.6888 68.4277 33.4655 68.4277 33.2148C68.4277 32.946 68.3503 32.7249 68.1953 32.5518C68.1178 32.4652 68.0176 32.3945 67.8945 32.3398C67.7715 32.2852 67.6302 32.2578 67.4707 32.2578H66.9922C66.5501 32.2578 66.1673 32.3854 65.8438 32.6406C65.7617 32.6953 65.6637 32.7295 65.5498 32.7432C65.4495 32.7432 65.3379 32.6953 65.2148 32.5996C65.1237 32.4993 65.0781 32.3831 65.0781 32.251C65.0781 32.1006 65.1419 31.9753 65.2695 31.875C65.7617 31.4922 66.3359 31.3008 66.9922 31.3008H67.4707C68.0723 31.3008 68.5508 31.499 68.9062 31.8955C69.2253 32.2555 69.3848 32.6953 69.3848 33.2148C69.3848 33.3652 69.3734 33.502 69.3506 33.625C69.3278 33.748 69.2891 33.8734 69.2344 34.001C69.1432 34.2243 68.9928 34.4408 68.7832 34.6504C68.9655 34.819 69.1159 35.0355 69.2344 35.2998L69.3438 35.6826C69.3711 35.8057 69.3848 35.9424 69.3848 36.0928C69.3848 36.6169 69.2253 37.0544 68.9062 37.4053C68.5645 37.8018 68.0859 38 67.4707 38H66.9922C66.3496 38 65.7754 37.8086 65.2695 37.4258C65.1374 37.3301 65.0713 37.2025 65.0713 37.043C65.0713 36.9382 65.1191 36.8288 65.2148 36.7148C65.3105 36.6009 65.4222 36.5439 65.5498 36.5439C65.6364 36.5439 65.7344 36.5827 65.8438 36.6602C66.1764 36.9154 66.5592 37.043 66.9922 37.043H67.4707C67.7578 37.043 67.988 36.9473 68.1611 36.7559C68.3389 36.5599 68.4277 36.3343 68.4277 36.0791C68.4277 35.833 68.3594 35.6257 68.2227 35.457C68.0859 35.2884 67.8763 35.179 67.5938 35.1289ZM76.084 37.5215C76.084 37.8405 75.9245 38 75.6055 38H73.2129C72.6979 38 72.249 37.8154 71.8662 37.4463C71.488 37.0771 71.2988 36.6237 71.2988 36.0859V31.7793C71.2988 31.6517 71.3467 31.5332 71.4424 31.4238C71.5381 31.3418 71.6497 31.3008 71.7773 31.3008C71.9004 31.3008 72.0098 31.3418 72.1055 31.4238C72.2057 31.5013 72.2559 31.6198 72.2559 31.7793V36.0859C72.2559 36.3548 72.347 36.5827 72.5293 36.7695C72.625 36.8516 72.7275 36.9199 72.8369 36.9746C72.9736 37.0202 73.099 37.043 73.2129 37.043H75.127V31.7793C75.127 31.6517 75.1748 31.5332 75.2705 31.4238C75.3662 31.3418 75.4779 31.3008 75.6055 31.3008C75.7285 31.3008 75.8379 31.3418 75.9336 31.4238C76.0339 31.5013 76.084 31.6198 76.084 31.7793V37.5215ZM81.8262 34.1719V31.7793C81.8262 31.6517 81.874 31.5332 81.9697 31.4238C82.0654 31.3418 82.1771 31.3008 82.3047 31.3008C82.4277 31.3008 82.5371 31.3418 82.6328 31.4238C82.7331 31.5013 82.7832 31.6198 82.7832 31.7793V37.5215C82.7832 37.6719 82.7376 37.7926 82.6465 37.8838C82.5599 37.9613 82.446 38 82.3047 38C82.1771 38 82.0654 37.9613 81.9697 37.8838C81.874 37.8018 81.8262 37.681 81.8262 37.5215V35.1289H78.9551V37.5215C78.9551 37.6719 78.9095 37.7926 78.8184 37.8838C78.7318 37.9613 78.6178 38 78.4766 38C78.349 38 78.2373 37.9613 78.1416 37.8838C78.0459 37.8018 77.998 37.681 77.998 37.5215V31.7793C77.998 31.6517 78.0459 31.5332 78.1416 31.4238C78.2373 31.3418 78.349 31.3008 78.4766 31.3008C78.5996 31.3008 78.709 31.3418 78.8047 31.4238C78.9049 31.5013 78.9551 31.6198 78.9551 31.7793V34.1719H81.8262ZM89.2363 37.5625C88.9902 37.6947 88.6712 37.8086 88.2793 37.9043L87.7666 37.9795L87.2061 38.0068L86.5361 37.9795L85.9619 37.8975C85.6064 37.8428 85.3148 37.6787 85.0869 37.4053C84.859 37.1273 84.7451 36.8128 84.7451 36.4619C84.7451 36.2614 84.7861 36.0609 84.8682 35.8604C84.9502 35.6598 85.0846 35.4798 85.2715 35.3203L88.3271 33.2217C88.4229 33.1396 88.4707 33.0417 88.4707 32.9277C88.4707 32.7272 88.3066 32.57 87.9785 32.4561C87.6504 32.3421 87.2904 32.2852 86.8984 32.2852C86.584 32.2852 86.3037 32.3125 86.0576 32.3672C85.8161 32.4173 85.6178 32.5085 85.4629 32.6406C85.3809 32.6953 85.2829 32.7295 85.1689 32.7432C85.0687 32.7432 84.957 32.6953 84.834 32.5996C84.7428 32.4993 84.6973 32.3831 84.6973 32.251C84.6973 32.1006 84.7611 31.9753 84.8887 31.875C85.0846 31.7246 85.3831 31.5993 85.7842 31.499C85.9756 31.4535 86.1738 31.417 86.3789 31.3896C86.5885 31.3623 86.7936 31.3486 86.9941 31.3486C87.1217 31.3486 87.2425 31.3509 87.3564 31.3555C87.4749 31.36 87.6071 31.3714 87.7529 31.3896C87.8988 31.4033 88.0719 31.4421 88.2725 31.5059C88.6188 31.6016 88.9014 31.7793 89.1201 32.0391C89.3434 32.2988 89.4551 32.5859 89.4551 32.9004C89.4551 33.2969 89.2728 33.6546 88.9082 33.9736L85.8525 36.0791C85.7386 36.1839 85.6816 36.307 85.6816 36.4482C85.6816 36.5622 85.7204 36.6738 85.7979 36.7832C85.8753 36.8789 85.9847 36.9404 86.126 36.9678L86.6387 37.0225L87.2129 37.0498C87.5684 37.0498 87.8577 37.027 88.0811 36.9814C88.1813 36.9632 88.293 36.9313 88.416 36.8857C88.5391 36.8402 88.6576 36.7832 88.7715 36.7148L88.8672 36.6738C88.9082 36.6602 88.9606 36.6533 89.0244 36.6533C89.1475 36.6533 89.2591 36.7035 89.3594 36.8037C89.446 36.904 89.4893 37.0225 89.4893 37.1592C89.4893 37.3141 89.4049 37.4486 89.2363 37.5625Z" fill="white"/>
</svg>
