<svg width="31" height="38" viewBox="0 0 31 38" fill="none" xmlns="http://www.w3.org/2000/svg">
<path d="M13.5273 32.8252L4.39788 13.6711C2.64344 9.99015 4.2038 5.58776 7.88472 3.83332C11.5656 2.07888 15.968 3.63924 17.7225 7.32016L27.6458 28.1398C28.7413 30.4383 27.765 33.1929 25.4665 34.2884C23.168 35.384 20.4134 34.4076 19.3179 32.1091L10.9823 14.6206C10.5457 13.7046 10.938 12.5978 11.854 12.1612C12.7701 11.7246 13.8768 12.1168 14.3135 13.0329L21.8552 28.8558L24.3535 27.6651L16.8118 11.8421C15.7163 9.54361 12.9617 8.5673 10.6632 9.66283C8.36475 10.7584 7.38843 13.5129 8.48397 15.8114L16.8195 33.2999C18.574 36.9809 22.9764 38.5412 26.6573 36.7868C30.3382 35.0323 31.8986 30.63 30.1441 26.949L20.2208 6.12936C17.8075 1.06602 11.7573 -1.07839 6.69392 1.33496C1.63058 3.74831 -0.513829 9.79852 1.89952 14.8619L11.029 34.016L13.5273 32.8252Z" fill="#EEEEEE"/>
</svg>
