<svg width="20" height="18" viewBox="0 0 20 18" fill="none" xmlns="http://www.w3.org/2000/svg">
<path d="M13.1905 9.33631V6.66964C13.1905 6.03879 12.6793 5.52679 12.0476 5.52679V5.52679C11.4168 5.52679 10.9048 6.03879 10.9048 6.66964" stroke="#86869A" stroke-width="0.761905" stroke-linecap="round" stroke-linejoin="round"/>
<path d="M13.1904 7.43156C13.1904 6.8007 13.7024 6.2887 14.3333 6.2887V6.2887C14.9649 6.2887 15.4761 6.8007 15.4761 7.43156V10.0982" stroke="#86869A" stroke-width="0.761905" stroke-linecap="round" stroke-linejoin="round"/>
<path d="M10.9048 9.33631V2.86012C10.9048 2.22926 10.3935 1.71726 9.76191 1.71726V1.71726C9.13105 1.71726 8.61905 2.22926 8.61905 2.86012V8.57441V10.8601L7.18363 9.42469C6.71353 8.9546 5.95239 8.9546 5.48229 9.42469V9.42469C5.09067 9.81631 5.02972 10.4296 5.33753 10.8906L8.02401 14.9195C8.87201 16.1912 10.2991 16.9554 11.8282 16.9554H13.1905C15.7154 16.9554 17.7619 14.9089 17.7619 12.3839V9.33631V8.19345C17.7619 7.5626 17.2507 7.0506 16.6191 7.0506V7.0506C15.9882 7.0506 15.4762 7.5626 15.4762 8.19345" stroke="#86869A" stroke-width="0.761905" stroke-linecap="round" stroke-linejoin="round"/>
<path d="M17.8272 1.00001L19.2855 2.45829L17.7411 4.00267" stroke="#86869A" stroke-width="0.761905" stroke-linecap="round" stroke-linejoin="round"/>
<path d="M2.45858 1.00001L1.0003 2.45829L2.54468 4.00267" stroke="#86869A" stroke-width="0.761905" stroke-linecap="round" stroke-linejoin="round"/>
<path d="M19.2857 2.45597H14.7142" stroke="#86869A" stroke-width="0.761905" stroke-linecap="round" stroke-linejoin="round"/>
<path d="M0.999982 2.45597H5.57141" stroke="#86869A" stroke-width="0.761905" stroke-linecap="round" stroke-linejoin="round"/>
</svg>
