<svg width="67" height="67" viewBox="0 0 67 67" fill="none" xmlns="http://www.w3.org/2000/svg">
<g clip-path="url(#clip0_56_85)">
<path d="M33.9167 44.8499C38.8505 44.8499 42.8501 40.8504 42.8501 35.9166C42.8501 30.9829 38.8505 26.9833 33.9167 26.9833C28.983 26.9833 24.9834 30.9829 24.9834 35.9166C24.9834 40.8504 28.983 44.8499 33.9167 44.8499Z" fill="#DEDEDE"/>
<path d="M25.5417 8L20.4329 13.5833H11.5833C8.5125 13.5833 6 16.0958 6 19.1667V52.6667C6 55.7375 8.5125 58.25 11.5833 58.25H56.25C59.3208 58.25 61.8333 55.7375 61.8333 52.6667V19.1667C61.8333 16.0958 59.3208 13.5833 56.25 13.5833H47.4004L42.2917 8H25.5417ZM33.9167 49.875C26.2117 49.875 19.9583 43.6217 19.9583 35.9167C19.9583 28.2117 26.2117 21.9583 33.9167 21.9583C41.6217 21.9583 47.875 28.2117 47.875 35.9167C47.875 43.6217 41.6217 49.875 33.9167 49.875Z" fill="#DEDEDE"/>
</g>
<defs>
<clipPath id="clip0_56_85">
<rect width="67" height="67" fill="white"/>
</clipPath>
</defs>
</svg>
