<svg width="34" height="34" viewBox="0 0 34 34" fill="none" xmlns="http://www.w3.org/2000/svg">
<path d="M17 0C7.61115 0 0 7.61115 0 17C0 26.3888 7.61115 34 17 34C26.3888 34 34 26.3888 34 17C34 7.61115 26.3888 0 17 0ZM25.8359 10.7536L22.8166 25.168C22.7801 25.3423 22.7003 25.5047 22.5846 25.6402C22.469 25.7756 22.3211 25.8799 22.1547 25.9433C21.9882 26.0067 21.8085 26.0273 21.632 26.0031C21.4555 25.979 21.288 25.9108 21.1447 25.805L16.7528 22.5603L14.0921 25.0705C14.0572 25.1033 14.0162 25.1289 13.9714 25.1458C13.9266 25.1626 13.8788 25.1703 13.831 25.1685C13.7831 25.1667 13.7361 25.1554 13.6927 25.1352C13.6493 25.115 13.6103 25.0864 13.5781 25.051L13.5209 24.9881L13.9832 20.514L22.3162 12.9005C22.3574 12.8629 22.383 12.8112 22.388 12.7557C22.393 12.7001 22.3769 12.6447 22.3431 12.6004C22.3092 12.556 22.26 12.526 22.2051 12.5162C22.1502 12.5064 22.0936 12.5175 22.0465 12.5474L11.3897 19.2923L6.8 17.7509C6.67796 17.7099 6.5716 17.6321 6.49551 17.5283C6.41941 17.4244 6.37731 17.2996 6.37498 17.1709C6.37266 17.0421 6.41021 16.9158 6.4825 16.8093C6.55479 16.7028 6.65828 16.6212 6.77875 16.5759L24.7363 9.81112C24.8749 9.759 25.0248 9.74504 25.1706 9.77071C25.3164 9.79638 25.4526 9.86074 25.5649 9.95705C25.6773 10.0534 25.7618 10.1781 25.8094 10.3182C25.8571 10.4583 25.8663 10.6087 25.8359 10.7536Z" fill="#F67F29"/>
</svg>
