<svg width="34" height="34" viewBox="0 0 34 34" fill="none" xmlns="http://www.w3.org/2000/svg">
<path d="M17 0C7.61115 0 0 7.61115 0 17C0 26.3888 7.61115 34 17 34C26.3888 34 34 26.3888 34 17C34 7.61115 26.3888 0 17 0ZM26.0554 22.7707H23.8981C23.6645 22.771 23.4338 22.7186 23.2232 22.6174C23.0126 22.5162 22.8275 22.3689 22.6817 22.1863C22.0348 21.3741 20.7603 19.934 19.4222 19.3154C19.3447 19.2791 19.2593 19.263 19.1739 19.2684C19.0885 19.2739 19.0058 19.3008 18.9336 19.3466C18.8613 19.3925 18.8018 19.4558 18.7605 19.5308C18.7192 19.6057 18.6974 19.6899 18.6973 19.7754V21.9089C18.6973 22.0221 18.675 22.1342 18.6318 22.2387C18.5885 22.3433 18.525 22.4383 18.445 22.5183C18.365 22.5983 18.27 22.6618 18.1655 22.7051C18.0609 22.7484 17.9489 22.7707 17.8357 22.7707H16.8382C15.5411 22.7707 12.7476 21.9811 10.5217 18.7386C8.62518 15.9761 7.77976 13.8351 7.28676 12.0993C7.2581 11.9975 7.2534 11.8905 7.27305 11.7867C7.29269 11.6828 7.33614 11.5849 7.39998 11.5007C7.46382 11.4165 7.54631 11.3482 7.64099 11.3012C7.73566 11.2542 7.83994 11.2297 7.94564 11.2298H10.1279C10.3456 11.2296 10.5576 11.2997 10.7322 11.4297C10.9069 11.5596 11.035 11.7425 11.0974 11.9511C11.5032 13.3083 12.5543 16.2363 14.4122 17.6943C14.4689 17.7389 14.5369 17.7667 14.6086 17.7745C14.6804 17.7823 14.7528 17.7698 14.8177 17.7383C14.8826 17.7069 14.9374 17.6578 14.9757 17.5967C15.0141 17.5356 15.0344 17.4649 15.0345 17.3928V13.9751C15.0345 13.2997 14.7418 12.624 14.2849 12.0958C14.2191 12.0201 14.1764 11.927 14.162 11.8277C14.1476 11.7284 14.1621 11.627 14.2037 11.5357C14.2453 11.4444 14.3124 11.3669 14.3968 11.3127C14.4812 11.2584 14.5794 11.2295 14.6798 11.2295H18.0443C18.2176 11.2295 18.3837 11.2983 18.5062 11.4208C18.6288 11.5433 18.6976 11.7095 18.6976 11.8827V16.4863C18.6976 16.553 18.716 16.6183 18.7506 16.6753C18.7853 16.7322 18.835 16.7784 18.8942 16.809C18.9534 16.8395 19.0199 16.8532 19.0864 16.8485C19.1529 16.8438 19.2168 16.8209 19.2711 16.7823C19.8887 16.3426 20.4176 15.6932 20.9041 14.9632C21.5164 14.0449 22.2635 12.527 22.6383 11.7392C22.7108 11.5866 22.8252 11.4577 22.968 11.3675C23.1109 11.2772 23.2764 11.2293 23.4454 11.2293H25.8254C25.9248 11.2293 26.0225 11.2546 26.1094 11.3029C26.1962 11.3512 26.2693 11.4209 26.3216 11.5054C26.374 11.5899 26.4039 11.6863 26.4086 11.7856C26.4132 11.8848 26.3924 11.9837 26.3482 12.0727C25.7476 13.2773 24.5779 15.4871 23.4771 16.7836C23.3196 16.9701 23.2424 17.2115 23.2626 17.4547C23.2828 17.698 23.3987 17.9233 23.5849 18.0812C24.3024 18.6943 25.4226 19.8277 26.6302 21.7156C26.6969 21.8189 26.7344 21.9383 26.7389 22.0611C26.7435 22.184 26.7148 22.3058 26.656 22.4138C26.5972 22.5218 26.5104 22.6119 26.4047 22.6747C26.299 22.7375 26.1783 22.7707 26.0554 22.7707Z" fill="#F67F29"/>
</svg>
